<mxfile host="app.diagrams.net" agent="Mozilla/5.0 (Macintosh; Intel Mac OS X 10_15_7) AppleWebKit/537.36 (KHTML, like Gecko) Chrome/135.0.0.0 Safari/537.36" version="26.2.14">
  <diagram id="lAmjz-HmWVI_cztvavgw" name="第 1 页">
    <mxGraphModel dx="1018" dy="-431" grid="1" gridSize="10" guides="1" tooltips="1" connect="1" arrows="1" fold="0" page="1" pageScale="1" pageWidth="826" pageHeight="1169" background="none" math="1" shadow="0">
      <root>
        <mxCell id="0" />
        <mxCell id="1" parent="0" />
        <mxCell id="EPhttKlr1k_DXlIbQeRx-17" value="&lt;div&gt;&lt;b&gt;&lt;font&gt;SM&lt;/font&gt;&lt;/b&gt;&lt;/div&gt;" style="rounded=0;whiteSpace=wrap;html=1;fillColor=#cce5ff;strokeColor=#36393d;fontFamily=Tahoma;align=center;fontSize=18;verticalAlign=top;" vertex="1" parent="1">
          <mxGeometry x="559" y="2372" width="761" height="80" as="geometry" />
        </mxCell>
        <mxCell id="EPhttKlr1k_DXlIbQeRx-18" value="&lt;font face=&quot;Tahoma&quot; style=&quot;font-size: 18px;&quot;&gt;Thread Block(CTA)&lt;/font&gt;" style="rounded=0;whiteSpace=wrap;html=1;fillColor=none;verticalAlign=top;" vertex="1" parent="1">
          <mxGeometry x="559" y="1690" width="761" height="160" as="geometry" />
        </mxCell>
        <mxCell id="EPhttKlr1k_DXlIbQeRx-19" value="&lt;div style=&quot;&quot;&gt;&lt;font style=&quot;font-size: 18px;&quot; face=&quot;Tahoma&quot;&gt;&lt;br&gt;&lt;/font&gt;&lt;/div&gt;&lt;div style=&quot;&quot;&gt;&lt;font style=&quot;font-size: 18px;&quot; face=&quot;Tahoma&quot;&gt;Warpgroup0 (128 threads)&lt;/font&gt;&lt;/div&gt;&lt;div style=&quot;&quot;&gt;&lt;font style=&quot;font-size: 18px;&quot; face=&quot;Tahoma&quot;&gt;&lt;font color=&quot;#0000ff&quot;&gt;tid0:&lt;/font&gt;&amp;nbsp;&lt;/font&gt;&lt;/div&gt;&lt;div style=&quot;&quot;&gt;&lt;font style=&quot;font-size: 18px;&quot; face=&quot;Tahoma&quot;&gt;&lt;br&gt;&lt;/font&gt;&lt;/div&gt;" style="rounded=0;whiteSpace=wrap;html=1;fillColor=#cce5ff;strokeColor=#36393d;fontFamily=Times New Roman;align=center;" vertex="1" parent="1">
          <mxGeometry x="569" y="1730" width="361" height="110" as="geometry" />
        </mxCell>
        <mxCell id="EPhttKlr1k_DXlIbQeRx-20" value="&lt;font&gt;SMEM&lt;/font&gt;" style="rounded=1;whiteSpace=wrap;html=1;fillColor=#99CCFF;fontFamily=Tahoma;strokeColor=none;fontSize=18;" vertex="1" parent="1">
          <mxGeometry x="820" y="2406" width="109" height="42" as="geometry" />
        </mxCell>
        <mxCell id="EPhttKlr1k_DXlIbQeRx-21" value="&lt;font&gt;TMA&lt;/font&gt;" style="rounded=1;whiteSpace=wrap;html=1;fillColor=#99CCFF;fontFamily=Tahoma;strokeColor=none;fontSize=18;" vertex="1" parent="1">
          <mxGeometry x="690" y="2406" width="109" height="42" as="geometry" />
        </mxCell>
        <mxCell id="EPhttKlr1k_DXlIbQeRx-22" value="&lt;span&gt;REG&lt;/span&gt;" style="rounded=1;whiteSpace=wrap;html=1;fillColor=#99CCFF;fontFamily=Tahoma;strokeColor=none;fontSize=18;" vertex="1" parent="1">
          <mxGeometry x="1080" y="2406" width="109" height="42" as="geometry" />
        </mxCell>
        <mxCell id="EPhttKlr1k_DXlIbQeRx-23" value="&lt;font&gt;TensorCore&lt;/font&gt;" style="rounded=1;whiteSpace=wrap;html=1;fillColor=#99CCFF;fontFamily=Tahoma;strokeColor=none;fontSize=18;" vertex="1" parent="1">
          <mxGeometry x="950" y="2406" width="109" height="42" as="geometry" />
        </mxCell>
        <mxCell id="EPhttKlr1k_DXlIbQeRx-24" value="" style="rounded=0;whiteSpace=wrap;html=1;" vertex="1" parent="1">
          <mxGeometry x="1450" y="1760" width="180" height="120" as="geometry" />
        </mxCell>
        <mxCell id="EPhttKlr1k_DXlIbQeRx-25" value="[BM, BK]" style="rounded=0;whiteSpace=wrap;html=1;fillColor=#dae8fc;strokeColor=default;" vertex="1" parent="1">
          <mxGeometry x="1450" y="1820" width="60" height="60" as="geometry" />
        </mxCell>
        <mxCell id="EPhttKlr1k_DXlIbQeRx-26" value="&lt;u&gt;[BM, BK]&lt;/u&gt;" style="rounded=0;whiteSpace=wrap;html=1;fillColor=#dae8fc;strokeColor=default;" vertex="1" parent="1">
          <mxGeometry x="1510" y="1820" width="60" height="60" as="geometry" />
        </mxCell>
        <mxCell id="EPhttKlr1k_DXlIbQeRx-27" value="[BM, BK]" style="rounded=0;whiteSpace=wrap;html=1;fillColor=#dae8fc;strokeColor=default;" vertex="1" parent="1">
          <mxGeometry x="1570" y="1820" width="60" height="60" as="geometry" />
        </mxCell>
        <mxCell id="EPhttKlr1k_DXlIbQeRx-28" value="" style="rounded=0;whiteSpace=wrap;html=1;" vertex="1" parent="1">
          <mxGeometry x="1660" y="1561" width="160" height="180" as="geometry" />
        </mxCell>
        <mxCell id="EPhttKlr1k_DXlIbQeRx-29" value="&lt;span style=&quot;font-family: Tahoma;&quot;&gt;[BK, BN]&lt;/span&gt;" style="rounded=0;whiteSpace=wrap;html=1;fillColor=#FFFFCC;strokeColor=default;" vertex="1" parent="1">
          <mxGeometry x="1710" y="1561" width="60" height="60" as="geometry" />
        </mxCell>
        <mxCell id="EPhttKlr1k_DXlIbQeRx-30" value="&lt;span style=&quot;font-family: Tahoma;&quot;&gt;&lt;u&gt;[BK, BN]&lt;/u&gt;&lt;/span&gt;" style="rounded=0;whiteSpace=wrap;html=1;fillColor=#FFFFCC;strokeColor=default;" vertex="1" parent="1">
          <mxGeometry x="1710" y="1621" width="60" height="60" as="geometry" />
        </mxCell>
        <mxCell id="EPhttKlr1k_DXlIbQeRx-31" value="&lt;span style=&quot;font-family: Tahoma;&quot;&gt;[BK, BN]&lt;/span&gt;" style="rounded=0;whiteSpace=wrap;html=1;fillColor=#FFFFCC;strokeColor=default;" vertex="1" parent="1">
          <mxGeometry x="1710" y="1681" width="60" height="60" as="geometry" />
        </mxCell>
        <mxCell id="EPhttKlr1k_DXlIbQeRx-32" value="" style="rounded=0;whiteSpace=wrap;html=1;" vertex="1" parent="1">
          <mxGeometry x="1660" y="1760" width="160" height="120" as="geometry" />
        </mxCell>
        <mxCell id="EPhttKlr1k_DXlIbQeRx-33" value="[BM, BN]" style="rounded=0;whiteSpace=wrap;html=1;fillColor=#d5e8d4;strokeColor=#82b366;" vertex="1" parent="1">
          <mxGeometry x="1710" y="1820" width="60" height="60" as="geometry" />
        </mxCell>
        <mxCell id="EPhttKlr1k_DXlIbQeRx-34" value="&lt;font style=&quot;font-size: 18px;&quot;&gt;task0&lt;/font&gt;" style="rounded=1;whiteSpace=wrap;html=1;fillColor=#f8cecc;fontFamily=Times New Roman;strokeColor=#b85450;" vertex="1" parent="1">
          <mxGeometry x="703.5" y="1730" width="92" height="30" as="geometry" />
        </mxCell>
        <mxCell id="EPhttKlr1k_DXlIbQeRx-35" value="" style="shape=curlyBracket;whiteSpace=wrap;html=1;rounded=1;labelPosition=left;verticalLabelPosition=middle;align=right;verticalAlign=middle;" vertex="1" parent="1">
          <mxGeometry x="1438" y="1760" width="10" height="120" as="geometry" />
        </mxCell>
        <mxCell id="EPhttKlr1k_DXlIbQeRx-36" value="&lt;font style=&quot;font-size: 18px;&quot;&gt;M&lt;/font&gt;" style="text;html=1;align=center;verticalAlign=middle;whiteSpace=wrap;rounded=0;" vertex="1" parent="1">
          <mxGeometry x="1410" y="1805" width="40" height="30" as="geometry" />
        </mxCell>
        <mxCell id="EPhttKlr1k_DXlIbQeRx-37" value="" style="shape=curlyBracket;whiteSpace=wrap;html=1;rounded=1;labelPosition=left;verticalLabelPosition=middle;align=right;verticalAlign=middle;rotation=90;" vertex="1" parent="1">
          <mxGeometry x="1534" y="1660" width="10" height="180" as="geometry" />
        </mxCell>
        <mxCell id="EPhttKlr1k_DXlIbQeRx-38" value="&lt;font style=&quot;font-size: 18px;&quot;&gt;K&lt;/font&gt;" style="text;html=1;align=center;verticalAlign=middle;whiteSpace=wrap;rounded=0;" vertex="1" parent="1">
          <mxGeometry x="1520" y="1720" width="40" height="30" as="geometry" />
        </mxCell>
        <mxCell id="EPhttKlr1k_DXlIbQeRx-39" value="" style="shape=curlyBracket;whiteSpace=wrap;html=1;rounded=1;labelPosition=left;verticalLabelPosition=middle;align=right;verticalAlign=middle;" vertex="1" parent="1">
          <mxGeometry x="1648" y="1561" width="10" height="179" as="geometry" />
        </mxCell>
        <mxCell id="EPhttKlr1k_DXlIbQeRx-40" value="&lt;font style=&quot;font-size: 18px;&quot;&gt;K&lt;/font&gt;" style="text;html=1;align=center;verticalAlign=middle;whiteSpace=wrap;rounded=0;" vertex="1" parent="1">
          <mxGeometry x="1618" y="1636" width="40" height="30" as="geometry" />
        </mxCell>
        <mxCell id="EPhttKlr1k_DXlIbQeRx-41" value="" style="shape=curlyBracket;whiteSpace=wrap;html=1;rounded=1;labelPosition=left;verticalLabelPosition=middle;align=right;verticalAlign=middle;rotation=90;" vertex="1" parent="1">
          <mxGeometry x="1735" y="1473" width="10" height="160" as="geometry" />
        </mxCell>
        <mxCell id="EPhttKlr1k_DXlIbQeRx-42" value="&lt;font style=&quot;font-size: 18px;&quot;&gt;N&lt;/font&gt;" style="text;html=1;align=center;verticalAlign=middle;whiteSpace=wrap;rounded=0;" vertex="1" parent="1">
          <mxGeometry x="1720" y="1520" width="40" height="30" as="geometry" />
        </mxCell>
        <mxCell id="EPhttKlr1k_DXlIbQeRx-43" value="" style="rounded=0;whiteSpace=wrap;html=1;dashed=1;fontFamily=Tahoma;" vertex="1" parent="1">
          <mxGeometry x="1100" y="1950" width="140" height="140" as="geometry" />
        </mxCell>
        <mxCell id="EPhttKlr1k_DXlIbQeRx-44" value="&lt;font face=&quot;Tahoma&quot; style=&quot;font-size: 18px;&quot;&gt;Queue&lt;/font&gt;&lt;span style=&quot;font-size: 18px; font-family: Tahoma; background-color: initial;&quot;&gt;@SMEM&lt;/span&gt;" style="text;html=1;align=center;verticalAlign=middle;whiteSpace=wrap;rounded=0;" vertex="1" parent="1">
          <mxGeometry x="1100" y="2094" width="140" height="30" as="geometry" />
        </mxCell>
        <mxCell id="EPhttKlr1k_DXlIbQeRx-45" value="[BM, BK]" style="rounded=0;whiteSpace=wrap;html=1;fillColor=#dae8fc;strokeColor=default;fontFamily=Tahoma;fontSize=14;" vertex="1" parent="1">
          <mxGeometry x="1109" y="1959" width="60" height="60" as="geometry" />
        </mxCell>
        <mxCell id="EPhttKlr1k_DXlIbQeRx-46" value="[BM, BK]" style="rounded=0;whiteSpace=wrap;html=1;fillColor=#dae8fc;strokeColor=default;fontFamily=Tahoma;fontSize=14;" vertex="1" parent="1">
          <mxGeometry x="1169" y="1959" width="60" height="60" as="geometry" />
        </mxCell>
        <mxCell id="EPhttKlr1k_DXlIbQeRx-47" value="[BK, BN]" style="rounded=0;whiteSpace=wrap;html=1;fillColor=#FFFFCC;strokeColor=default;fontFamily=Tahoma;fontSize=14;" vertex="1" parent="1">
          <mxGeometry x="1109" y="2019" width="60" height="60" as="geometry" />
        </mxCell>
        <mxCell id="EPhttKlr1k_DXlIbQeRx-48" value="[BK, BN]" style="rounded=0;whiteSpace=wrap;html=1;fillColor=#FFFFCC;strokeColor=default;fontFamily=Tahoma;fontSize=14;" vertex="1" parent="1">
          <mxGeometry x="1169" y="2019" width="60" height="60" as="geometry" />
        </mxCell>
        <mxCell id="EPhttKlr1k_DXlIbQeRx-49" value="" style="rounded=0;whiteSpace=wrap;html=1;dashed=1;fontFamily=Tahoma;fontSize=14;" vertex="1" parent="1">
          <mxGeometry x="749" y="1950" width="140" height="140" as="geometry" />
        </mxCell>
        <mxCell id="EPhttKlr1k_DXlIbQeRx-50" value="&lt;font face=&quot;Tahoma&quot; style=&quot;font-size: 18px;&quot;&gt;Barrier&lt;/font&gt;&lt;span style=&quot;font-size: 18px; font-family: Tahoma; background-color: initial;&quot;&gt;@SMEM&lt;/span&gt;" style="text;html=1;align=center;verticalAlign=middle;whiteSpace=wrap;rounded=0;" vertex="1" parent="1">
          <mxGeometry x="755" y="2094" width="128" height="30" as="geometry" />
        </mxCell>
        <mxCell id="EPhttKlr1k_DXlIbQeRx-51" value="full[0]" style="rounded=0;whiteSpace=wrap;html=1;fillColor=#FFB366;strokeColor=default;fontFamily=Tahoma;fontSize=14;" vertex="1" parent="1">
          <mxGeometry x="759" y="1960" width="60" height="60" as="geometry" />
        </mxCell>
        <mxCell id="EPhttKlr1k_DXlIbQeRx-52" value="full[1]" style="rounded=0;whiteSpace=wrap;html=1;fillColor=#FFB366;strokeColor=default;fontFamily=Tahoma;fontSize=14;" vertex="1" parent="1">
          <mxGeometry x="819" y="1960" width="60" height="60" as="geometry" />
        </mxCell>
        <mxCell id="EPhttKlr1k_DXlIbQeRx-53" value="empty[0]" style="rounded=0;whiteSpace=wrap;html=1;fillColor=#FFE6CC;strokeColor=default;fontFamily=Tahoma;fontSize=14;" vertex="1" parent="1">
          <mxGeometry x="759" y="2020" width="60" height="60" as="geometry" />
        </mxCell>
        <mxCell id="EPhttKlr1k_DXlIbQeRx-54" value="empty[1]" style="rounded=0;whiteSpace=wrap;html=1;fillColor=#FFE6CC;strokeColor=default;fontFamily=Tahoma;fontSize=14;" vertex="1" parent="1">
          <mxGeometry x="819" y="2020" width="60" height="60" as="geometry" />
        </mxCell>
        <mxCell id="EPhttKlr1k_DXlIbQeRx-55" value="&lt;span class=&quot;s1&quot;&gt;&lt;font face=&quot;Tahoma&quot; style=&quot;font-size: 16px;&quot;&gt;kernel&amp;lt;&amp;lt;&amp;lt;(M/BM) * (N/BN), NUM_THREADS, sMemSize&amp;gt;&amp;gt;&amp;gt;&lt;/font&gt;&lt;/span&gt;&lt;div&gt;&lt;span class=&quot;s1&quot;&gt;&lt;font face=&quot;Tahoma&quot; style=&quot;font-size: 16px;&quot;&gt;&lt;br&gt;&lt;/font&gt;&lt;/span&gt;&lt;/div&gt;&lt;div&gt;&lt;span class=&quot;s1&quot;&gt;&lt;font face=&quot;Tahoma&quot; style=&quot;font-size: 16px;&quot;&gt;&lt;b&gt;TB scheduling&lt;/b&gt;: by C row-major&lt;/font&gt;&lt;/span&gt;&lt;/div&gt;&lt;div&gt;&lt;span class=&quot;s1&quot;&gt;&lt;font face=&quot;Tahoma&quot;&gt;&lt;span style=&quot;font-size: 16px;&quot;&gt;num_block_n = blockIdx.x % (N / BN)&lt;/span&gt;&lt;br&gt;&lt;/font&gt;&lt;/span&gt;&lt;/div&gt;&lt;div&gt;&lt;span class=&quot;s1&quot;&gt;&lt;font face=&quot;Tahoma&quot;&gt;&lt;span style=&quot;font-size: 16px;&quot;&gt;num_block_n = blockIdx.x % (N / BN);&lt;/span&gt;&lt;/font&gt;&lt;/span&gt;&lt;/div&gt;" style="text;whiteSpace=wrap;html=1;" vertex="1" parent="1">
          <mxGeometry x="700" y="1550" width="469" height="110" as="geometry" />
        </mxCell>
        <mxCell id="EPhttKlr1k_DXlIbQeRx-56" value="&lt;font face=&quot;Tahoma&quot; style=&quot;font-size: 14px;&quot;&gt;Async barrier lifetime:&amp;nbsp;&lt;/font&gt;&lt;div&gt;&lt;ul&gt;&lt;li&gt;&lt;font face=&quot;Tahoma&quot; style=&quot;font-size: 14px;&quot;&gt;init(bar, arrival count)&lt;/font&gt;&lt;/li&gt;&lt;li&gt;&lt;font face=&quot;Tahoma&quot; style=&quot;font-size: 14px;&quot;&gt;&lt;span style=&quot;background-color: initial;&quot;&gt;barrier::arrival_token t&lt;/span&gt;oken=bar.arrive(): countdown&lt;/font&gt;&lt;/li&gt;&lt;li&gt;&lt;font face=&quot;Tahoma&quot; style=&quot;font-size: 14px;&quot;&gt;...&lt;/font&gt;&lt;/li&gt;&lt;li&gt;&lt;font face=&quot;Tahoma&quot; style=&quot;font-size: 14px;&quot;&gt;bar.wait(std::move(token))&lt;/font&gt;&lt;/li&gt;&lt;li&gt;&lt;font face=&quot;Tahoma&quot; style=&quot;font-size: 14px;&quot;&gt;reset&lt;/font&gt;&lt;/li&gt;&lt;/ul&gt;&lt;/div&gt;" style="text;html=1;align=left;verticalAlign=middle;whiteSpace=wrap;rounded=0;fillColor=default;" vertex="1" parent="1">
          <mxGeometry x="509" y="2150" width="370" height="128" as="geometry" />
        </mxCell>
        <mxCell id="EPhttKlr1k_DXlIbQeRx-57" value="Spatial Partitioning" style="text;whiteSpace=wrap;fontSize=18;fontFamily=Tahoma;" vertex="1" parent="1">
          <mxGeometry x="1170" y="1653" width="174" height="40" as="geometry" />
        </mxCell>
        <mxCell id="EPhttKlr1k_DXlIbQeRx-58" value="&lt;div style=&quot;&quot;&gt;&lt;font style=&quot;font-size: 18px;&quot; face=&quot;Tahoma&quot;&gt;&lt;br&gt;&lt;/font&gt;&lt;/div&gt;&lt;div style=&quot;&quot;&gt;&lt;font style=&quot;font-size: 18px;&quot; face=&quot;Tahoma&quot;&gt;Warpgroup1 (128 threads)&lt;/font&gt;&lt;/div&gt;&lt;div style=&quot;&quot;&gt;&lt;font face=&quot;Tahoma&quot;&gt;&lt;span style=&quot;font-size: 18px;&quot;&gt;all:&lt;/span&gt;&lt;/font&gt;&lt;/div&gt;&lt;div style=&quot;&quot;&gt;&lt;font face=&quot;Tahoma&quot;&gt;&lt;span style=&quot;font-size: 18px;&quot;&gt;&lt;br&gt;&lt;/span&gt;&lt;/font&gt;&lt;/div&gt;" style="rounded=0;whiteSpace=wrap;html=1;fillColor=#cce5ff;strokeColor=#36393d;fontFamily=Times New Roman;align=center;" vertex="1" parent="1">
          <mxGeometry x="950" y="1730" width="361" height="110" as="geometry" />
        </mxCell>
        <mxCell id="EPhttKlr1k_DXlIbQeRx-59" value="&lt;font style=&quot;font-size: 18px;&quot;&gt;task1&lt;/font&gt;" style="rounded=1;whiteSpace=wrap;html=1;fillColor=#f8cecc;fontFamily=Times New Roman;strokeColor=#b85450;" vertex="1" parent="1">
          <mxGeometry x="1084.5" y="1730" width="92" height="30" as="geometry" />
        </mxCell>
        <mxCell id="EPhttKlr1k_DXlIbQeRx-60" value="" style="endArrow=classic;html=1;rounded=0;entryX=0.5;entryY=0;entryDx=0;entryDy=0;exitX=0.5;exitY=1;exitDx=0;exitDy=0;strokeColor=#0000FF;" edge="1" parent="1" source="EPhttKlr1k_DXlIbQeRx-19" target="EPhttKlr1k_DXlIbQeRx-61">
          <mxGeometry width="50" height="50" relative="1" as="geometry">
            <mxPoint x="614" y="1840" as="sourcePoint" />
            <mxPoint x="424" y="1917" as="targetPoint" />
          </mxGeometry>
        </mxCell>
        <mxCell id="EPhttKlr1k_DXlIbQeRx-61" value="&lt;font style=&quot;font-size: 14px;&quot;&gt;for QSIZE:&amp;nbsp;&amp;nbsp; &amp;nbsp;&amp;nbsp;&lt;br style=&quot;padding: 0px; margin: 0px;&quot;&gt;&amp;nbsp; &amp;nbsp; init(&amp;amp;full[i], num_consumers * 128 + 1);&amp;nbsp;&lt;br style=&quot;padding: 0px; margin: 0px;&quot;&gt;&amp;nbsp; &amp;nbsp; init(&amp;amp;empty[i], num_consumers * 128 + 1);&lt;br style=&quot;padding: 0px; margin: 0px;&quot;&gt;cde::fence_proxy_async_shared_cta();&lt;br style=&quot;padding: 0px; margin: 0px;&quot;&gt;__syncthreads();&lt;/font&gt;" style="rounded=0;whiteSpace=wrap;html=1;fillColor=#F5F5F5;align=left;" vertex="1" parent="1">
          <mxGeometry x="324" y="1889" width="336" height="90" as="geometry" />
        </mxCell>
        <mxCell id="EPhttKlr1k_DXlIbQeRx-62" value="&lt;font style=&quot;font-size: 14px;&quot; face=&quot;Tahoma&quot;&gt;for num_blocks_k:&lt;br style=&quot;padding: 0px; margin: 0px;&quot;&gt;&amp;nbsp; &amp;nbsp;&lt;span style=&quot;background-color: rgb(255, 204, 153);&quot;&gt; empty[qidx].wait(empty[qidx].arrive());&lt;/span&gt;&lt;br style=&quot;padding: 0px; margin: 0px;&quot;&gt;&amp;nbsp; &amp;nbsp;&amp;nbsp;cp_async_bulk_tensor_2d_global_to_shared(SA[qidx])&lt;br style=&quot;padding: 0px; margin: 0px;&quot;&gt;&amp;nbsp; &amp;nbsp; cp_async_bulk_tensor_2d_global_to_shared(SB[qidx])&lt;br style=&quot;padding: 0px; margin: 0px;&quot;&gt;&amp;nbsp; &amp;nbsp; &lt;span style=&quot;background-color: rgb(255, 153, 51);&quot;&gt;barrier_arrive_tx(full[qidx], 1, (BK*BN+BK*BM)*sizeof(bf16))&lt;/span&gt;&lt;/font&gt;" style="rounded=0;whiteSpace=wrap;html=1;fillColor=#F5F5F5;align=left;" vertex="1" parent="1">
          <mxGeometry x="300" y="2020" width="410" height="100" as="geometry" />
        </mxCell>
        <mxCell id="EPhttKlr1k_DXlIbQeRx-63" value="&lt;font style=&quot;font-size: 16px;&quot; face=&quot;Tahoma&quot;&gt;for QSIZE:&amp;nbsp;&lt;br style=&quot;padding: 0px; margin: 0px;&quot;&gt;&amp;nbsp; &amp;nbsp;&lt;span style=&quot;background-color: rgb(255, 204, 153);&quot;&gt;&amp;nbsp;empty[i].arrive() // ALL barriers. task0 is running.&lt;/span&gt;&lt;br style=&quot;padding: 0px; margin: 0px;&quot;&gt;&lt;br style=&quot;padding: 0px; margin: 0px;&quot;&gt;float d[BM/WGMMA_M][WGMMA_N/16][8]; // N/2 f32 reg for each T&lt;br style=&quot;padding: 0px; margin: 0px;&quot;&gt;for num_blocks_k:&lt;br style=&quot;padding: 0px; margin: 0px;&quot;&gt;&amp;nbsp;&amp;nbsp;&amp;nbsp;&amp;nbsp;&lt;span style=&quot;background-color: rgb(255, 153, 51);&quot;&gt;full[qidx].wait(full[qidx].arrive());&amp;nbsp; // all 128 threads&lt;/span&gt;&lt;br style=&quot;padding: 0px; margin: 0px;&quot;&gt;&amp;nbsp;&amp;nbsp;&amp;nbsp;&amp;nbsp;warpgroup_arrive();&amp;nbsp;&lt;br style=&quot;padding: 0px; margin: 0px;&quot;&gt;&lt;font style=&quot;&quot; color=&quot;#0000ff&quot;&gt;&amp;nbsp;&amp;nbsp;&amp;nbsp;&amp;nbsp;for (int m_it = 0; m_it &amp;lt; BM/WGMMA_M; ++m_it) {&lt;br style=&quot;padding: 0px; margin: 0px;&quot;&gt;&amp;nbsp; &amp;nbsp; &amp;nbsp;&amp;nbsp;&amp;nbsp;&amp;nbsp;bf16 *wgmma_sA = sA + qidx*BK*BM + BK*m_it*WGMMA_M;&lt;br style=&quot;padding: 0px; margin: 0px;&quot;&gt;&amp;nbsp;&amp;nbsp;&amp;nbsp;&amp;nbsp;&amp;nbsp;&amp;nbsp;&amp;nbsp;&amp;nbsp;for (int k_it = 0; k_it &amp;lt; BK/WGMMA_K; ++k_it)&amp;nbsp; &amp;nbsp; &amp;nbsp; &amp;nbsp; &amp;nbsp; &amp;nbsp; &amp;nbsp; &amp;nbsp; &amp;nbsp; &amp;nbsp; &amp;nbsp; &amp;nbsp;&amp;nbsp;&lt;br style=&quot;padding: 0px; margin: 0px;&quot;&gt;&amp;nbsp; &amp;nbsp; &amp;nbsp; &amp;nbsp; &amp;nbsp; &amp;nbsp; &amp;nbsp; &amp;nbsp; wgmma&amp;lt;WGMMA_N, 1, 1, 1, 0, 0&amp;gt;(d[m_it],&amp;nbsp;&lt;br style=&quot;padding: 0px; margin: 0px;&quot;&gt;&amp;nbsp;&amp;nbsp;&amp;nbsp;&amp;nbsp;&amp;nbsp;&amp;nbsp;&amp;nbsp;&amp;nbsp;&amp;nbsp;&amp;nbsp;&amp;nbsp;&amp;nbsp;&amp;nbsp;&amp;nbsp;&amp;nbsp;&amp;nbsp;&amp;nbsp;&amp;nbsp;&amp;nbsp;&amp;nbsp;&amp;nbsp;&amp;nbsp;&amp;nbsp;&amp;nbsp;&amp;amp;wgmma_sA[k_it*WGMMA_K],&amp;nbsp;&lt;br style=&quot;padding: 0px; margin: 0px;&quot;&gt;&amp;nbsp;&amp;nbsp;&amp;nbsp;&amp;nbsp;&amp;nbsp;&amp;nbsp;&amp;nbsp;&amp;nbsp;&amp;nbsp;&amp;nbsp;&amp;nbsp;&amp;nbsp;&amp;nbsp;&amp;nbsp;&amp;nbsp;&amp;nbsp;&amp;nbsp;&amp;nbsp;&amp;nbsp;&amp;nbsp;&amp;nbsp;&amp;nbsp;&amp;nbsp;&amp;nbsp;&amp;amp;sB[qidx*BK*BN + k_it*WGMMA_K]);&lt;br style=&quot;padding: 0px; margin: 0px;&quot;&gt;&amp;nbsp;&amp;nbsp;&amp;nbsp;&amp;nbsp;&amp;nbsp;}&lt;/font&gt;&lt;br style=&quot;padding: 0px; margin: 0px;&quot;&gt;&amp;nbsp;&amp;nbsp;&amp;nbsp;&amp;nbsp;warpgroup_commit_batch();&lt;br style=&quot;padding: 0px; margin: 0px;&quot;&gt;&amp;nbsp;&amp;nbsp;&amp;nbsp;&amp;nbsp;warpgroup_wait&amp;lt;0&amp;gt;();&lt;br style=&quot;padding: 0px; margin: 0px;&quot;&gt;&amp;nbsp;&amp;nbsp;&amp;nbsp;&amp;nbsp;&lt;span style=&quot;background-color: rgb(255, 204, 153);&quot;&gt;empty[qidx].arrive();&lt;/span&gt;&lt;/font&gt;" style="rounded=0;whiteSpace=wrap;html=1;fillColor=#F5F5F5;align=left;" vertex="1" parent="1">
          <mxGeometry x="1380" y="1992" width="500" height="338" as="geometry" />
        </mxCell>
        <mxCell id="EPhttKlr1k_DXlIbQeRx-64" value="" style="curved=1;endArrow=classic;html=1;rounded=0;entryX=0.714;entryY=0.071;entryDx=0;entryDy=0;entryPerimeter=0;exitX=0.5;exitY=1;exitDx=0;exitDy=0;dashed=1;" edge="1" parent="1" source="EPhttKlr1k_DXlIbQeRx-26" target="EPhttKlr1k_DXlIbQeRx-43">
          <mxGeometry width="50" height="50" relative="1" as="geometry">
            <mxPoint x="1390" y="1920" as="sourcePoint" />
            <mxPoint x="1440" y="1870" as="targetPoint" />
            <Array as="points">
              <mxPoint x="1390" y="1900" />
            </Array>
          </mxGeometry>
        </mxCell>
        <mxCell id="EPhttKlr1k_DXlIbQeRx-65" value="" style="curved=1;endArrow=classic;html=1;rounded=0;entryX=0.5;entryY=0;entryDx=0;entryDy=0;exitX=1;exitY=0.75;exitDx=0;exitDy=0;fillColor=#d80073;strokeColor=#FFCC99;" edge="1" parent="1" source="EPhttKlr1k_DXlIbQeRx-54" target="EPhttKlr1k_DXlIbQeRx-46">
          <mxGeometry width="50" height="50" relative="1" as="geometry">
            <mxPoint x="980" y="2060" as="sourcePoint" />
            <mxPoint x="1030" y="2010" as="targetPoint" />
            <Array as="points">
              <mxPoint x="950" y="2050" />
              <mxPoint x="980" y="2010" />
              <mxPoint x="1040" y="1880" />
            </Array>
          </mxGeometry>
        </mxCell>
        <mxCell id="EPhttKlr1k_DXlIbQeRx-66" value="" style="curved=1;endArrow=classic;html=1;rounded=0;entryX=1;entryY=0.5;entryDx=0;entryDy=0;exitX=1;exitY=0.25;exitDx=0;exitDy=0;dashed=1;" edge="1" parent="1" source="EPhttKlr1k_DXlIbQeRx-30" target="EPhttKlr1k_DXlIbQeRx-48">
          <mxGeometry width="50" height="50" relative="1" as="geometry">
            <mxPoint x="1870" y="1590" as="sourcePoint" />
            <mxPoint x="1330" y="1995" as="targetPoint" />
            <Array as="points">
              <mxPoint x="1880" y="1840" />
              <mxPoint x="1830" y="1900" />
              <mxPoint x="1800" y="1900" />
              <mxPoint x="1650" y="1920" />
              <mxPoint x="1490" y="1890" />
              <mxPoint x="1350" y="1960" />
            </Array>
          </mxGeometry>
        </mxCell>
        <mxCell id="EPhttKlr1k_DXlIbQeRx-67" value="" style="rounded=0;whiteSpace=wrap;html=1;fillColor=#dae8fc;strokeColor=default;fontFamily=Tahoma;" vertex="1" parent="1">
          <mxGeometry x="1040" y="2161" width="60" height="60" as="geometry" />
        </mxCell>
        <mxCell id="EPhttKlr1k_DXlIbQeRx-68" value="" style="rounded=0;whiteSpace=wrap;html=1;fillColor=#FFFFCC;strokeColor=default;fontFamily=Tahoma;" vertex="1" parent="1">
          <mxGeometry x="1178.5" y="2161" width="60" height="60" as="geometry" />
        </mxCell>
        <mxCell id="EPhttKlr1k_DXlIbQeRx-69" value="" style="rounded=0;whiteSpace=wrap;html=1;fillColor=#dae8fc;strokeColor=default;fontFamily=Tahoma;" vertex="1" parent="1">
          <mxGeometry x="1040" y="2181" width="30" height="20" as="geometry" />
        </mxCell>
        <mxCell id="EPhttKlr1k_DXlIbQeRx-70" value="" style="rounded=0;whiteSpace=wrap;html=1;fillColor=#dae8fc;strokeColor=#0000FF;fontFamily=Tahoma;shadow=0;gradientColor=none;glass=0;sketch=1;curveFitting=1;jiggle=2;" vertex="1" parent="1">
          <mxGeometry x="1070" y="2181" width="30" height="20" as="geometry" />
        </mxCell>
        <mxCell id="EPhttKlr1k_DXlIbQeRx-71" value="m_it" style="text;whiteSpace=wrap;fontSize=16;fontFamily=Tahoma;" vertex="1" parent="1">
          <mxGeometry x="1000" y="2174" width="48" height="40" as="geometry" />
        </mxCell>
        <mxCell id="EPhttKlr1k_DXlIbQeRx-72" value="k_it" style="text;whiteSpace=wrap;fontSize=16;fontFamily=Tahoma;" vertex="1" parent="1">
          <mxGeometry x="1053" y="2216" width="48" height="30" as="geometry" />
        </mxCell>
        <mxCell id="EPhttKlr1k_DXlIbQeRx-73" value="" style="rounded=0;whiteSpace=wrap;html=1;fillColor=#FFFFCC;strokeColor=#0000FF;fontFamily=Tahoma;sketch=1;curveFitting=1;jiggle=2;" vertex="1" parent="1">
          <mxGeometry x="1178.5" y="2193" width="60" height="25" as="geometry" />
        </mxCell>
        <mxCell id="EPhttKlr1k_DXlIbQeRx-74" value="k_it" style="text;whiteSpace=wrap;fontSize=16;fontFamily=Tahoma;" vertex="1" parent="1">
          <mxGeometry x="1146" y="2185" width="30" height="30" as="geometry" />
        </mxCell>
        <mxCell id="EPhttKlr1k_DXlIbQeRx-75" value="&lt;span style=&quot;color: rgb(0, 0, 255); font-size: 14px; font-style: normal; font-variant-ligatures: normal; font-variant-caps: normal; font-weight: 400; letter-spacing: normal; orphans: 2; text-align: left; text-indent: 0px; text-transform: none; widows: 2; word-spacing: 0px; -webkit-text-stroke-width: 0px; white-space: normal; background-color: rgb(251, 251, 251); text-decoration-thickness: initial; text-decoration-style: initial; text-decoration-color: initial; float: none; display: inline !important;&quot;&gt;[WGMMA_M,&amp;nbsp;&lt;/span&gt;&lt;div&gt;&lt;span style=&quot;color: rgb(0, 0, 255); font-size: 14px;&quot;&gt;&amp;nbsp; WGMMA_K]&lt;/span&gt;&lt;/div&gt;" style="text;whiteSpace=wrap;html=1;fontFamily=Tahoma;" vertex="1" parent="1">
          <mxGeometry x="1024" y="2254" width="90" height="40" as="geometry" />
        </mxCell>
        <mxCell id="EPhttKlr1k_DXlIbQeRx-76" value="&lt;span style=&quot;color: rgb(0, 0, 255); font-size: 14px; font-style: normal; font-variant-ligatures: normal; font-variant-caps: normal; font-weight: 400; letter-spacing: normal; orphans: 2; text-align: left; text-indent: 0px; text-transform: none; widows: 2; word-spacing: 0px; -webkit-text-stroke-width: 0px; white-space: normal; background-color: rgb(251, 251, 251); text-decoration-thickness: initial; text-decoration-style: initial; text-decoration-color: initial; float: none; display: inline !important;&quot;&gt;[WGMMA_K,&amp;nbsp;&lt;/span&gt;&lt;div&gt;&lt;span style=&quot;color: rgb(0, 0, 255); font-size: 14px;&quot;&gt;&amp;nbsp; BN]&lt;/span&gt;&lt;/div&gt;" style="text;whiteSpace=wrap;html=1;fontFamily=Tahoma;" vertex="1" parent="1">
          <mxGeometry x="1168.5" y="2255" width="90" height="40" as="geometry" />
        </mxCell>
        <mxCell id="EPhttKlr1k_DXlIbQeRx-77" value=" WG block scheduling: by m64nNk16" style="text;whiteSpace=wrap;fontSize=16;fontFamily=Tahoma;fontStyle=1" vertex="1" parent="1">
          <mxGeometry x="1030" y="2300" width="320" height="40" as="geometry" />
        </mxCell>
        <mxCell id="EPhttKlr1k_DXlIbQeRx-78" value="" style="curved=1;endArrow=classic;html=1;rounded=0;exitX=1;exitY=0.5;exitDx=0;exitDy=0;strokeColor=#FF9933;strokeWidth=2;entryX=0.045;entryY=0.382;entryDx=0;entryDy=0;entryPerimeter=0;" edge="1" parent="1" source="EPhttKlr1k_DXlIbQeRx-52" target="EPhttKlr1k_DXlIbQeRx-63">
          <mxGeometry width="50" height="50" relative="1" as="geometry">
            <mxPoint x="970" y="2160" as="sourcePoint" />
            <mxPoint x="1400" y="2147.6497695852536" as="targetPoint" />
            <Array as="points">
              <mxPoint x="940" y="2100" />
              <mxPoint x="970" y="2157" />
            </Array>
          </mxGeometry>
        </mxCell>
        <mxCell id="EPhttKlr1k_DXlIbQeRx-79" value="&lt;div&gt;&lt;span style=&quot;color: rgb(0, 0, 255); font-size: 14px;&quot;&gt;d[m_it]:&lt;/span&gt;&lt;span style=&quot;color: rgb(0, 0, 255); font-size: 14px;&quot;&gt;&lt;br&gt;&lt;/span&gt;&lt;/div&gt;&lt;span style=&quot;color: rgb(0, 0, 255); font-size: 14px;&quot;&gt;[WGMMA_M,&amp;nbsp;&lt;/span&gt;&lt;div&gt;&lt;span style=&quot;color: rgb(0, 0, 255); font-size: 14px;&quot;&gt;&amp;nbsp; BN]&lt;/span&gt;&lt;/div&gt;" style="text;whiteSpace=wrap;html=1;fontFamily=Tahoma;" vertex="1" parent="1">
          <mxGeometry x="1271" y="2238" width="90" height="40" as="geometry" />
        </mxCell>
        <mxCell id="EPhttKlr1k_DXlIbQeRx-80" value="=" style="text;whiteSpace=wrap;fontSize=18;fontFamily=Tahoma;fontStyle=1" vertex="1" parent="1">
          <mxGeometry x="1254.5" y="2176" width="25.5" height="40" as="geometry" />
        </mxCell>
        <mxCell id="EPhttKlr1k_DXlIbQeRx-81" value="X" style="text;whiteSpace=wrap;fontSize=18;fontFamily=Tahoma;fontStyle=1" vertex="1" parent="1">
          <mxGeometry x="1119.25" y="2175" width="25.5" height="40" as="geometry" />
        </mxCell>
        <mxCell id="EPhttKlr1k_DXlIbQeRx-82" value="" style="endArrow=classic;html=1;rounded=0;entryX=0.172;entryY=0.01;entryDx=0;entryDy=0;entryPerimeter=0;exitX=0.5;exitY=1;exitDx=0;exitDy=0;fillColor=#0050ef;strokeColor=#001DBC;strokeWidth=2;" edge="1" parent="1" source="EPhttKlr1k_DXlIbQeRx-58" target="EPhttKlr1k_DXlIbQeRx-63">
          <mxGeometry width="50" height="50" relative="1" as="geometry">
            <mxPoint x="950" y="2150" as="sourcePoint" />
            <mxPoint x="1000" y="2100" as="targetPoint" />
          </mxGeometry>
        </mxCell>
        <mxCell id="EPhttKlr1k_DXlIbQeRx-83" value="" style="endArrow=classic;html=1;rounded=0;entryX=0.868;entryY=-0.01;entryDx=0;entryDy=0;entryPerimeter=0;fillColor=#0050ef;strokeColor=#001DBC;" edge="1" parent="1" target="EPhttKlr1k_DXlIbQeRx-62">
          <mxGeometry width="50" height="50" relative="1" as="geometry">
            <mxPoint x="750" y="1840" as="sourcePoint" />
            <mxPoint x="1000" y="1910" as="targetPoint" />
          </mxGeometry>
        </mxCell>
        <mxCell id="EPhttKlr1k_DXlIbQeRx-84" value="&lt;div style=&quot;&quot;&gt;&lt;font style=&quot;font-size: 16px;&quot;&gt;warp0&lt;/font&gt;&lt;/div&gt;" style="rounded=0;whiteSpace=wrap;html=1;fillColor=#cce5ff;strokeColor=#36393d;fontFamily=Times New Roman;align=center;" vertex="1" parent="1">
          <mxGeometry x="960" y="1805" width="80" height="30" as="geometry" />
        </mxCell>
        <mxCell id="EPhttKlr1k_DXlIbQeRx-85" value="&lt;div style=&quot;&quot;&gt;&lt;font style=&quot;font-size: 16px;&quot;&gt;warp1&lt;/font&gt;&lt;/div&gt;" style="rounded=0;whiteSpace=wrap;html=1;fillColor=#cce5ff;strokeColor=#36393d;fontFamily=Times New Roman;align=center;" vertex="1" parent="1">
          <mxGeometry x="1048" y="1805" width="80" height="30" as="geometry" />
        </mxCell>
        <mxCell id="EPhttKlr1k_DXlIbQeRx-86" value="&lt;div style=&quot;&quot;&gt;&lt;font style=&quot;font-size: 16px;&quot;&gt;warp2&lt;/font&gt;&lt;/div&gt;" style="rounded=0;whiteSpace=wrap;html=1;fillColor=#cce5ff;strokeColor=#36393d;fontFamily=Times New Roman;align=center;" vertex="1" parent="1">
          <mxGeometry x="1136" y="1805" width="80" height="30" as="geometry" />
        </mxCell>
        <mxCell id="EPhttKlr1k_DXlIbQeRx-87" value="&lt;div style=&quot;&quot;&gt;&lt;font style=&quot;font-size: 16px;&quot;&gt;warp3&lt;/font&gt;&lt;/div&gt;" style="rounded=0;whiteSpace=wrap;html=1;fillColor=#cce5ff;strokeColor=#36393d;fontFamily=Times New Roman;align=center;" vertex="1" parent="1">
          <mxGeometry x="1223.25" y="1804" width="80" height="30" as="geometry" />
        </mxCell>
        <mxCell id="EPhttKlr1k_DXlIbQeRx-88" value="&lt;font style=&quot;font-size: 16px;&quot; face=&quot;Tahoma&quot;&gt;// store C (col-major)&lt;/font&gt;&lt;div&gt;&lt;font face=&quot;Tahoma&quot; style=&quot;font-size: 16px;&quot;&gt;// refer to :&amp;nbsp;&lt;span style=&quot;background-color: initial;&quot;&gt;WGMMA .m64nNk16 register fragment layout for accumulator matrix D.&lt;/span&gt;&lt;/font&gt;&lt;/div&gt;&lt;div&gt;&lt;font face=&quot;Tahoma&quot;&gt;&lt;span style=&quot;font-size: 16px;&quot;&gt;// Each thread: WGMMA_N/2=64 registers.&lt;/span&gt;&lt;/font&gt;&lt;/div&gt;" style="rounded=0;whiteSpace=wrap;html=1;fillColor=#F5F5F5;align=left;" vertex="1" parent="1">
          <mxGeometry x="1380" y="2330" width="500" height="80" as="geometry" />
        </mxCell>
        <mxCell id="EPhttKlr1k_DXlIbQeRx-89" value="" style="rounded=0;whiteSpace=wrap;html=1;fillColor=#d5e8d4;strokeColor=#82b366;" vertex="1" parent="1">
          <mxGeometry x="1290" y="2161" width="60" height="60" as="geometry" />
        </mxCell>
        <mxCell id="EPhttKlr1k_DXlIbQeRx-90" value="" style="rounded=0;whiteSpace=wrap;html=1;fillColor=#d5e8d4;strokeColor=#82b366;fontFamily=Tahoma;sketch=1;curveFitting=1;jiggle=2;" vertex="1" parent="1">
          <mxGeometry x="1290" y="2191" width="60" height="30" as="geometry" />
        </mxCell>
        <mxCell id="EPhttKlr1k_DXlIbQeRx-91" value="" style="curved=1;endArrow=classic;html=1;rounded=0;entryX=0.5;entryY=1;entryDx=0;entryDy=0;dashed=1;fillColor=#008a00;strokeColor=#005700;strokeWidth=2;" edge="1" parent="1" target="EPhttKlr1k_DXlIbQeRx-33">
          <mxGeometry width="50" height="50" relative="1" as="geometry">
            <mxPoint x="1350" y="2211" as="sourcePoint" />
            <mxPoint x="1400" y="2161" as="targetPoint" />
            <Array as="points">
              <mxPoint x="1380" y="2200" />
              <mxPoint x="1320" y="1950" />
              <mxPoint x="1680" y="1950" />
            </Array>
          </mxGeometry>
        </mxCell>
        <UserObject label="&lt;font face=&quot;Tahoma&quot;&gt;&lt;span style=&quot;&quot; class=&quot;s1&quot;&gt;wgmma.mma_async.sync.aligned.&lt;/span&gt;&lt;span style=&quot;&quot; class=&quot;s2&quot;&gt;m64n128&lt;/span&gt;&lt;span style=&quot;&quot; class=&quot;s1&quot;&gt;k16.f32.bf16.bf16&lt;/span&gt;&lt;/font&gt;&lt;div&gt;&lt;span class=&quot;s1&quot;&gt;&lt;font face=&quot;Tahoma&quot;&gt;{%0, ... %63}, ...&lt;/font&gt;&lt;/span&gt;&lt;/div&gt;" id="EPhttKlr1k_DXlIbQeRx-92">
          <mxCell style="text;whiteSpace=wrap;html=1;" vertex="1" parent="1">
            <mxGeometry x="1015" y="2324" width="329" height="40" as="geometry" />
          </mxCell>
        </UserObject>
        <mxCell id="EPhttKlr1k_DXlIbQeRx-93" value="&lt;ul&gt;&lt;li&gt;&lt;font style=&quot;font-size: 16px;&quot;&gt;wgmma.mma_async Shared Memory Matrix Layout:&amp;nbsp;If the argument imm-trans-a / imm-trans-b of the instruction wgmma.mma_async{.sp} is 0, then K-major is used for matrix A / B respectively.&lt;/font&gt;&lt;/li&gt;&lt;li&gt;&lt;font style=&quot;font-size: 16px;&quot;&gt;cp.async.bulk.tensor is a non-blocking instruction which initiates an asynchronous copy operation of tensor data from the location in .src state space to the location in the .dst state space.&lt;/font&gt;&lt;div style=&quot;padding: 0px; margin: 0px;&quot;&gt;&lt;br style=&quot;padding: 0px; margin: 0px; font-family: Tahoma; font-size: 16px;&quot;&gt;&lt;/div&gt;&lt;/li&gt;&lt;/ul&gt;" style="text;strokeColor=none;fillColor=none;html=1;whiteSpace=wrap;verticalAlign=middle;overflow=hidden;" vertex="1" parent="1">
          <mxGeometry x="559" y="2480" width="744" height="100" as="geometry" />
        </mxCell>
        <mxCell id="EPhttKlr1k_DXlIbQeRx-94" value="&lt;ul&gt;&lt;li&gt;&lt;span style=&quot;font-size: 16px;&quot;&gt;tensorMap&lt;/span&gt;&lt;br&gt;&lt;/li&gt;&lt;li&gt;&lt;span style=&quot;font-size: 16px;&quot;&gt;&lt;br&gt;&lt;/span&gt;&lt;/li&gt;&lt;/ul&gt;" style="text;strokeColor=#666666;fillColor=#f5f5f5;html=1;whiteSpace=wrap;verticalAlign=middle;overflow=hidden;fontColor=#333333;" vertex="1" parent="1">
          <mxGeometry x="1380" y="1560" width="215" height="100" as="geometry" />
        </mxCell>
      </root>
    </mxGraphModel>
  </diagram>
</mxfile>
